<svg xmlns="http://www.w3.org/2000/svg" viewBox="0 0 1920 320">
    <defs>
        <style type="text/css">
            .logo-primary { 
                fill: blueviolet; 
            }
            .logo-secondary {
                fill: blueviolet;
                opacity: 60%;
            }
            .flicker {
                animation: flicker 9s linear infinite;
            }
            .crack {
                animation: static 13s linear infinite;
            }
            .text {
                fill: white;
            }
            .text-glow {
                fill: blueviolet;
            }
            #M{
                animation: flicker 10s cubic-bezier(.1, .5, .3, .7) infinite;
            }
            #K{
                animation: flicker 10s cubic-bezier(.3, .2, .7, .1) infinite;
            }

            @keyframes static {
                from    { fill: black; }

                9.8%      { fill: black; }
                10%     { fill: white; }
                10.1%   { fill: black; }

                30.9%   { fill: black; }
                31%     { fill: white; }
                31.1%   { fill: black; }

                53.8%     { fill: black; }
                54%     { fill: white; }
                54.2%     { fill: black; }

                66.2%     { fill: black; }
                66.5%   { fill: white; }
                67%     { fill: black; }

                to      { fill: black; }
            }

            @keyframes flicker {
                from    { opacity: 1; }

                9%      { opacity: 1; }
                10%     { opacity: .1; }
                10.1%   { opacity: 1; }

                30.5%   { opacity: 1; }
                31%     { opacity: .4; }
                31.1%   { opacity: 1; }

                52%     { opacity: 1; }
                54%     { opacity: .2; }
                55%     { opacity: 1; }

                66%     { opacity: 1; }
                66.5%   { opacity: .4; }
                67%     { opacity: 1; }

                to      { opacity: 1; }
            }
        </style>

        <!--   Static neon filter for slight blur -->
        <filter id="static_blur" x="-50%" y="-50%" width="200%" height="200%" filterUnits="userSpaceOnUse">
            <feGaussianBlur in="SourceGraphic" stdDeviation="1" />
        </filter>

        <!--   Filter for neon glow -->
        <filter id="neon_glow" x="-50%" y="-50%" width="200%" height="200%" filterUnits="userSpaceOnUse">
            <feGaussianBlur in="SourceGraphic" stdDeviation="12" />
        </filter>
    </defs>
    <g>
        <g>
            <path fill="#0d1117" d="M0 0h1920v320H0z" />

            <path filter="url(#neon_glow)" class="text-glow" d="M76.27 212.17q-2.55-2.62-2.55-9.94a99.15 99.15 0 011-12.64q1-7.71 3.42-21.22 4.13-25 6.51-43.25A157.78 157.78 0 0086.13 106q0-7.16-5.25-7.16-4.14 0-9.94 4.22t-12.8 13.43c-1.48 2-3.13 3-4.93 3a4.84 4.84 0 01-3.89-2.14 7.66 7.66 0 01-1.67-4.85 14 14 0 011-5.17 28.64 28.64 0 013.42-6A60.18 60.18 0 0169.11 85q9.39-5.81 18.76-5.8 8.75 0 13.44 5.56T106 101a77.43 77.43 0 01-.79 10.1c-.54 3.87-1 7-1.44 9.46s-.74 4.13-1 5.09q9.06-25.92 20.35-36.18T148 79.17q10.34 0 16.29 7.31t6 20.67a74.83 74.83 0 01-1.43 13q7.94-21.94 18.6-31.48a35.62 35.62 0 0124.48-9.54q11.13 0 17.1 7.15t6 20a86.36 86.36 0 01-2.07 17l-9.7 45.47a71.39 71.39 0 00-1.59 13.68q0 6.67 3.1 10t8.67 3.34a17.74 17.74 0 0010.26-3.49q5-3.49 11.84-11.61a5.59 5.59 0 014.29-2.23 3.67 3.67 0 013.26 1.91 9.81 9.81 0 011.2 5.25q0 6.2-3 9.86-8.27 10-16.37 14.62a33.89 33.89 0 01-17 4.61q-13.51 0-21.14-8T199 185.22q0-9.37 3.81-27.19l6.36-29.1q.31-1.43 1.11-5.08t1.28-6.92a45.54 45.54 0 00.47-6.44q0-5.56-2.14-8.35a7.29 7.29 0 00-6.12-2.78q-7.48 0-15.67 9.62t-15.58 31.88q-7.39 22.26-12 57.88c-.75 6.36-2 10.62-3.9 12.8s-4.85 3.25-9 3.25c-3.61 0-6.23-.84-7.87-2.54s-2.47-4.87-2.47-9.54a109.3 109.3 0 011.75-17.09q1.76-10.58 4.45-24.89 7.32-38.47 7.32-49.6 0-6-2.31-8.91c-1.53-1.91-3.84-2.86-6.91-2.86q-7.8 0-16.06 8.83t-16.14 31.32Q101.55 162 96.3 200.33c-.74 5.4-1.83 9.17-3.26 11.28s-4.21 3.18-8.35 3.18q-5.88 0-8.42-2.62z" />
            <path filter="url(#neon_glow)" class="text-glow" d="M263.23 210.77a26 26 0 01-9.74-11 37.71 37.71 0 01-3.56-17 68.93 68.93 0 017.23-31.34 56.84 56.84 0 0121.37-23.15q14.13-8.73 34-8.73a83.15 83.15 0 0111 .78 60.74 60.74 0 0110.63 2.33c2.08.6 3.12 2.08 3.12 4.46a8.33 8.33 0 01-2.17 5.45 6.49 6.49 0 01-5.11 2.63 6.13 6.13 0 01-1.33-.11c-3.86-.89-7.17-1.54-9.91-2a58.84 58.84 0 00-8.68-.61q-14.14 0-24 6.84a41.83 41.83 0 00-14.8 18.09 60 60 0 00-4.9 24.26q0 9.47 3.73 14.64a11.46 11.46 0 009.73 5.17 15.72 15.72 0 0011.82-5.48q5.13-5.57 9.35-18t8.35-33.84a6 6 0 012.67-4.23 11 11 0 015.34-1.11q7.9 0 7.91 5.12a9.17 9.17 0 01-.34 2.23Q322 156.9 319.66 170t-2.4 19.87c0 4 .6 6.92 1.78 8.73a6.07 6.07 0 005.46 2.73 11.29 11.29 0 006.79-2.39 53.88 53.88 0 008.12-8.18 3.9 3.9 0 013-1.56 2.58 2.58 0 012.28 1.34 7 7 0 01.83 3.67 10.51 10.51 0 01-2.11 6.9 50.53 50.53 0 01-10.69 10 22.72 22.72 0 01-12.8 3.45q-7.79 0-12.57-4.51t-6-12.75q-8.24 17.26-24.27 17.26a25.92 25.92 0 01-13.85-3.79z" />
            <path filter="url(#neon_glow)" class="text-glow" d="M351.1 212.72q-1.78-1.83-1.78-7a63.85 63.85 0 01.66-8.34q.67-4.9 2.34-14.81.23-1.34 1.78-10.85t2.79-20a118.18 118.18 0 001.11-13.29c0-3.34-1.23-5-3.67-5q-2.79 0-7 3a42.36 42.36 0 00-9 9.4 4.36 4.36 0 01-3.45 2.12 3.39 3.39 0 01-2.73-1.51 5.37 5.37 0 01-1.17-3.39 10.06 10.06 0 01.67-3.62 19.53 19.53 0 012.45-4.17 42.67 42.67 0 0112.13-11.52 26.57 26.57 0 0114-4.06q6.12 0 9.18 3.78t3.06 11a141.94 141.94 0 01-1.78 18.7q5.56-16.47 14.13-25a27.7 27.7 0 0120.15-8.51q9.12 0 13.74 5.17t4.62 13.86a60.81 60.81 0 01-1.33 11.88l-6.79 31.83a49.33 49.33 0 00-1.12 9.57c0 3.12.73 5.46 2.17 7a7.87 7.87 0 006.07 2.34 12.36 12.36 0 007.18-2.45 47 47 0 008.29-8.12 3.9 3.9 0 013-1.56 2.58 2.58 0 012.28 1.34 7 7 0 01.83 3.67 10.51 10.51 0 01-2.11 6.9 43 43 0 01-11.47 10.24 23.75 23.75 0 01-11.91 3.23q-9.45 0-14.8-5.62t-5.34-15.09a57.37 57.37 0 01.61-8q.62-4.34 2.06-11l4.45-20.37c.15-.66.41-1.85.78-3.56s.67-3.32.89-4.84a31.44 31.44 0 00.34-4.51 7.89 7.89 0 00-2-5.67 7.44 7.44 0 00-5.67-2.12q-6.69 0-13.36 7.13t-12.35 23q-5.68 15.85-8.91 40.57c-.52 3.78-1.28 6.42-2.28 7.9s-2.95 2.23-5.84 2.23-4.72-.66-5.9-1.88z" />
            <path filter="url(#neon_glow)" class="text-glow" d="M489.44 121.68a4.06 4.06 0 012 3.39 7.64 7.64 0 01-2.23 5.73 8.69 8.69 0 01-6.34 2.17c-4.31 0-7.57 0-9.8.11q-.22 1.33-2 12c-1.34 7.94-2.16 12.79-2.45 14.58l-2.34 14.58q-2.44 16.35-3.89 27.38c1.55-.08 3.67-.12 6.34-.12q5.89 0 8 1.56a5.44 5.44 0 012.12 4.68 6.25 6.25 0 01-2.28 4.89 9.37 9.37 0 01-6.4 2c-1.86 0-4.79-.08-8.79-.22-3.72-.15-6.16-.23-7.35-.23a105.85 105.85 0 00-15.36 1.23 40.09 40.09 0 01-5.23.55 6.39 6.39 0 01-4.12-1.33 4.71 4.71 0 01-1.67-3.9 7 7 0 013.56-6.23c2.38-1.48 5.71-2.26 10-2.34l5.23-.11.34-2.45q2.65-17.8 3.89-25.15l2.45-14.58q2.22-12.91 4-26.6l-9.35.11q-4 0-5.51-1.28a4.5 4.5 0 01-1.51-3.62q0-7.56 10.91-8.12 5.12-.23 12.47-.23l20.37.11a8.34 8.34 0 014.94 1.44zm7.9 87.59q-8.89-5.62-8.9-17.2c0-4.08.7-7.19 2.11-9.35a7 7 0 016.24-3.22 7.53 7.53 0 014.9 1.55 5 5 0 011.89 4 19.52 19.52 0 01-.34 3.9 12.47 12.47 0 01-.16 1.56 14.6 14.6 0 00-.17 2.33q0 5 5.06 7.46t14.19 2.45q9.47 0 14.81-3.4a10.67 10.67 0 005.34-9.51 9.43 9.43 0 00-2.45-6.51 20.35 20.35 0 00-6.12-4.57q-3.68-1.83-10.35-4.5a115 115 0 01-14-6.35 28.93 28.93 0 01-9.24-8.18 21 21 0 01-3.84-12.85 24.53 24.53 0 014.29-14.25A27.66 27.66 0 01513 123a48 48 0 0119-3.45 44.45 44.45 0 0114.91 2.39 24.17 24.17 0 0110.85 7.29 18.2 18.2 0 014.07 12q0 7-2.12 10.57a6.81 6.81 0 01-6.23 3.56 6.89 6.89 0 01-4.84-1.78 5.52 5.52 0 01-2-4.23 21.46 21.46 0 01.33-3.89c.23-2.23.34-3.64.34-4.23q0-4.68-4.57-7.12a23.8 23.8 0 00-11.35-2.45q-9.57 0-14.63 3.5a11.3 11.3 0 00-5.06 9.84 10.64 10.64 0 002.62 7.24 21.66 21.66 0 006.51 5q3.88 2 10.91 4.78a139.29 139.29 0 0113.57 6.24 26.9 26.9 0 018.74 7.56 19 19 0 013.62 11.8q0 13.14-10 20.2t-26.66 7.07q-14.76 0-23.67-5.62z" />
            <path filter="url(#neon_glow)" class="text-glow" d="M672.47 190.52a6.85 6.85 0 01.84 3.67 10.52 10.52 0 01-2.12 6.9q-11 13.47-23.48 13.47a20.71 20.71 0 01-17.25-8.35q-6.46-8.36-6.46-23.93c0-2.52.11-5.05.34-7.57a156.12 156.12 0 01-16 2q-5.79.45-7.9.56-2.24 11.35-6.24 27.83-2.32 9.68-8.9 9.68-7.12 0-7.12-6.46a20.07 20.07 0 01.55-4q3.79-15.25 6-25.83l-5.34.23q-3.68 0-5.34-1.28a5 5 0 01-1.67-4.18q0-3.66 2.11-5.39t7-2l5.89-.22q2.89-15.7 2.9-23.93c0-3.49-.52-5.86-1.56-7.13a5.07 5.07 0 00-4.12-1.89q-7.79 0-17.58 13a4.07 4.07 0 01-3.23 1.89 3.29 3.29 0 01-2.67-1.44 5.87 5.87 0 01-1.12-3.67 12.83 12.83 0 012.79-7.35A40.23 40.23 0 01575.14 124a29.51 29.51 0 0115.14-4.39q7.23 0 11.18 4.95t4 15.42q0 9.24-2.68 25l10.91-.56a114.43 114.43 0 0012-1.11 116.09 116.09 0 016.12-22.93A54.39 54.39 0 01642 123.07q6.12-6.67 13.69-6.68a10.36 10.36 0 018.8 4.4q3.22 4.39 3.22 11.52 0 27.6-28.16 38.28-.33 4.46-.33 9.24 0 11.68 2.89 16.58t8.13 4.9a15.38 15.38 0 008.35-2.39 39.47 39.47 0 008.57-8.18 3.9 3.9 0 013-1.56 2.56 2.56 0 012.31 1.34zm-22.48-60a56.58 56.58 0 00-5.17 12.14 112.77 112.77 0 00-3.9 16.8q8.91-3.68 13.13-10.46t4.23-17.47a7.57 7.57 0 00-.89-4 2.59 2.59 0 00-2.22-1.45c-1.64-.01-3.36 1.48-5.17 4.44zm219.4 49.93a9.91 9.91 0 011.19 5.25q0 6.2-3 9.86a69 69 0 01-15.43 14.23 33.33 33.33 0 01-18.44 5q-11.78 0-19.24-6.91t-14-21.55a167.19 167.19 0 00-7.87-15.66 24.21 24.21 0 00-6.12-7.31 15.81 15.81 0 00-7.64-2.63l-1.74 11.77q-3.35 22.74-13 32.75t-26.48 10a35.91 35.91 0 01-19.44-5.25 28.59 28.59 0 01-11.85-13.6 17 17 0 01-1.11-6.2 15.1 15.1 0 012.22-8.27c1.49-2.33 3.39-3.5 5.73-3.5a5.85 5.85 0 013.5 1 9.76 9.76 0 012.7 3.57q4.92 9.22 8.66 12.88a12.77 12.77 0 009.31 3.66c4.23 0 7.87-1.93 10.89-5.8s5.16-9.83 6.44-17.89l2.22-15.11h-2.54a7.16 7.16 0 01-7.79-7.79 9.68 9.68 0 012.14-6.59 6.79 6.79 0 015.33-2.47h5.25q1.11-7.78 1.59-10.81l4.93-35.78a70.09 70.09 0 00-7.79-.47q-13.51 0-20.51 4.69a15.18 15.18 0 00-7 13.43 19.74 19.74 0 00.87 6.44 58.54 58.54 0 002.31 5.49 6.36 6.36 0 01.64 2.86 7.72 7.72 0 01-3.26 6.12 11.28 11.28 0 01-7.24 2.62 7.91 7.91 0 01-7.47-4.45 36.17 36.17 0 01-4.77-18.12 32.43 32.43 0 015.48-18.29q5.49-8.26 16.62-13.27t27.51-5a99.54 99.54 0 0113.11.79 80.61 80.61 0 0113.12 3q7.79 2.39 7.79 8.91 0 8.74-7.47 8.74l-6.2 42.77a43.68 43.68 0 0030.29-16q11.68-14.07 19.47-38.24a12.85 12.85 0 014.85-6.83 14.81 14.81 0 018.67-2.39 10.74 10.74 0 016.92 2 6.85 6.85 0 012.46 5.64 17.39 17.39 0 01-.63 3.66q-8 26.24-22.74 41.66t-32.28 20.51a27.14 27.14 0 019.94 4.29 26.59 26.59 0 016.6 7.08 104.62 104.62 0 016.2 11.68q4.92 10.5 9.22 14.87a13.59 13.59 0 0010 4.37 16 16 0 009.7-3.41q4.6-3.42 11.6-11.69a5.62 5.62 0 014.3-2.23 3.7 3.7 0 013.28 1.92z" />
            <path filter="url(#neon_glow)" class="text-glow" d="M872.88 209.38q-4.78-5.17-4.78-13.86a60.89 60.89 0 011.44-11.91l6.9-31.83c.15-.59.51-2.22 1.06-4.89a42.43 42.43 0 00.84-8.69 6.39 6.39 0 00-1.06-4 3.44 3.44 0 00-2.84-1.34c-2.23 0-4.82 1.06-7.79 3.17a45.08 45.08 0 00-9.35 9.74 4.36 4.36 0 01-3.45 2.12 3.39 3.39 0 01-2.73-1.51A5.36 5.36 0 01850 143c0-2.3 1-4.9 3.11-7.79q11.35-15.58 26.6-15.58 6.8 0 10.63 4.12t3.84 12.13a65.21 65.21 0 01-.78 10.46q-.78 4.78-2.67 13l-4.56 20.37c-.15.67-.41 1.85-.78 3.56s-.67 3.32-.89 4.84a31.55 31.55 0 00-.34 4.51 7.9 7.9 0 002 5.68 7.43 7.43 0 005.67 2.11q6.69 0 13.53-7.12t12.68-23q5.85-15.85 9.08-40.56c.51-3.79 1.28-6.42 2.28-7.91s3-2.22 5.84-2.22q3.9 0 5.79 2.33c1.26 1.56 1.89 4.09 1.89 7.57a57 57 0 01-.72 7.91q-.74 4.89-2.17 13.69-3 17-4.79 31.27a78.36 78.36 0 00-.89 9.57c0 3 .69 5.36 2.06 7a6.91 6.91 0 005.51 2.39 12.36 12.36 0 007.18-2.45 47 47 0 008.29-8.12 3.9 3.9 0 013-1.56 2.59 2.59 0 012.29 1.34 7 7 0 01.83 3.67 10.51 10.51 0 01-2.11 6.9 43 43 0 01-11.47 10.24 23.75 23.75 0 01-11.93 3.21q-9.24 0-14.13-4.73a16.34 16.34 0 01-4.9-12.3 141.47 141.47 0 011.78-16.48q-5.57 16.37-14.08 24.94T887 214.56q-9.32 0-14.12-5.18z" />
            <path filter="url(#neon_glow)" class="text-glow" d="M961.81 209.27q-8.89-5.62-8.9-17.2c0-4.08.7-7.19 2.11-9.35a7 7 0 016.24-3.22 7.48 7.48 0 014.89 1.55 5 5 0 011.89 4 20.35 20.35 0 01-.33 3.9 11.23 11.23 0 01-.17 1.56 15.89 15.89 0 00-.16 2.33q0 5 5.06 7.46t14.19 2.45q9.47 0 14.8-3.4a10.66 10.66 0 005.35-9.51 9.43 9.43 0 00-2.45-6.51 20.35 20.35 0 00-6.12-4.57q-3.68-1.83-10.35-4.5a115 115 0 01-14-6.35 28.93 28.93 0 01-9.24-8.18 21 21 0 01-3.84-12.85 24.53 24.53 0 014.29-14.25 27.66 27.66 0 0112.38-9.63 48 48 0 0119-3.45 44.49 44.49 0 0114.91 2.39 24.22 24.22 0 0110.85 7.29 18.2 18.2 0 014.06 12q0 7-2.11 10.57a7.33 7.33 0 01-11.07 1.78 5.52 5.52 0 01-2-4.23 21.46 21.46 0 01.33-3.89c.22-2.23.34-3.64.34-4.23 0-3.12-1.53-5.49-4.57-7.12a23.8 23.8 0 00-11.35-2.45q-9.57 0-14.64 3.5a11.31 11.31 0 00-5.06 9.85 10.64 10.64 0 002.62 7.24 21.66 21.66 0 006.51 5q3.88 2 10.9 4.78a138.51 138.51 0 0113.58 6.24 27 27 0 018.74 7.56 19 19 0 013.62 11.8q0 13.14-10 20.2t-26.66 7.07q-14.74-.01-23.64-5.63z" />
            <path filter="url(#neon_glow)" class="text-glow" d="M1136.94 190.52a6.85 6.85 0 01.84 3.67 10.52 10.52 0 01-2.12 6.9q-11 13.47-23.48 13.47a20.71 20.71 0 01-17.25-8.35q-6.47-8.36-6.46-23.93c0-2.52.11-5.05.33-7.57a155.91 155.91 0 01-16 2c-3.86.3-6.5.49-7.9.56q-2.24 11.35-6.24 27.83-2.34 9.68-8.9 9.68-7.12 0-7.12-6.46a20.07 20.07 0 01.55-4q3.78-15.25 6-25.83l-5.34.23q-3.67 0-5.34-1.28a4.92 4.92 0 01-1.67-4.18q0-3.66 2.11-5.39t7-2l5.9-.22q2.89-15.7 2.9-23.93c0-3.49-.52-5.86-1.56-7.13a5.07 5.07 0 00-4.12-1.89q-7.78 0-17.58 13a4.08 4.08 0 01-3.23 1.89 3.29 3.29 0 01-2.67-1.44 5.87 5.87 0 01-1.12-3.67 12.83 12.83 0 012.79-7.35 40.23 40.23 0 0112.35-11.13 29.51 29.51 0 0115.14-4.39q7.23 0 11.18 4.95t4 15.42q0 9.24-2.67 25l10.91-.56a114.69 114.69 0 0012-1.11 116.09 116.09 0 016.12-22.93 54.39 54.39 0 0110.24-17.36q6.12-6.67 13.69-6.68a10.33 10.33 0 018.79 4.4q3.23 4.39 3.23 11.52 0 27.6-28.16 38.28-.33 4.46-.33 9.24 0 11.68 2.89 16.58t8.13 4.9a15.32 15.32 0 008.34-2.39 39.48 39.48 0 008.58-8.18 3.88 3.88 0 013-1.56 2.58 2.58 0 012.25 1.39zm-22.48-60a57.05 57.05 0 00-5.18 12.14 114.06 114.06 0 00-3.89 16.8q8.89-3.68 13.13-10.46t4.23-17.47a7.66 7.66 0 00-.89-4 2.59 2.59 0 00-2.23-1.45c-1.63-.01-3.35 1.48-5.17 4.44z" />
            <path filter="url(#neon_glow)" class="text-glow" d="M1273.84 167a3.82 3.82 0 011.17 2.9 8.1 8.1 0 01-1.73 5.11 6.65 6.65 0 01-5.4 2.34 73.78 73.78 0 01-15.8-1.33q-7.8 16.57-18.75 27.54t-21.65 11q-9.79 0-14.69-10.41t-5.57-27.88q-6.68 19.36-15.08 28.83t-17.86 9.46q-10.7 0-16.14-13.3t-5.46-35.79a247.52 247.52 0 012.9-35.95c.52-3.71 1.46-6.29 2.84-7.73s3.54-2.17 6.51-2.17a8.2 8.2 0 015.17 1.44q1.85 1.45 1.84 5.35c0 .52-.08 1.52-.22 3a274.35 274.35 0 00-3.34 38.85q0 14.91 2.56 23t6.9 8.13q3.89 0 9.4-8.18t11-24.26a253.23 253.23 0 009.23-38.35c.6-3.41 1.69-5.77 3.29-7.06a10 10 0 016.51-1.95q3.45 0 5.06 1.5a5.85 5.85 0 011.62 4.51 13.27 13.27 0 01-.23 2.78 214.77 214.77 0 00-3.11 36.28 184.81 184.81 0 00.83 19.7q.84 7.35 3.23 11.19a7.7 7.7 0 007 3.84q5.34 0 11.91-8.07a92.46 92.46 0 0012-20.09 27.59 27.59 0 01-10.24-11 33.61 33.61 0 01-3.45-15.53 36.16 36.16 0 012.72-14.86 20.12 20.12 0 017.46-9.07 19.23 19.23 0 0110.52-3A13.77 13.77 0 011258 123q4.18 5.12 4.18 14 0 12.59-5.46 27.94a78.73 78.73 0 0013.36 1 5.28 5.28 0 013.76 1.06zm-29.55-6.9q4.34-12.47 4.34-20.59 0-4.68-1.22-6.84a3.74 3.74 0 00-3.34-2.18q-3 0-4.9 3.51t-1.89 10q0 10.89 7.01 16.13z" />
            <path filter="url(#neon_glow)" class="text-glow" d="M1278.4 210.77a26.08 26.08 0 01-9.74-11 37.84 37.84 0 01-3.56-17 68.8 68.8 0 017.24-31.34 56.77 56.77 0 0121.37-23.15q14.13-8.73 33.94-8.73a83 83 0 0111 .78 60.74 60.74 0 0110.63 2.33c2.08.6 3.12 2.08 3.12 4.46a8.28 8.28 0 01-2.17 5.45 6.48 6.48 0 01-5.06 2.56 6.24 6.24 0 01-1.34-.11q-5.79-1.34-9.91-2a58.74 58.74 0 00-8.68-.61q-14.13 0-24 6.84a41.9 41.9 0 00-14.8 18.09 60 60 0 00-4.9 24.26q0 9.47 3.73 14.64a11.48 11.48 0 009.74 5.17 15.75 15.75 0 0011.91-5.56q5.12-5.57 9.35-18t8.35-33.84a5.92 5.92 0 012.67-4.23 11 11 0 015.34-1.11q7.9 0 7.9 5.12a9.59 9.59 0 01-.33 2.23q-2.89 10.78-5.29 23.87t-2.39 19.87c0 4 .59 6.92 1.78 8.73a6 6 0 005.45 2.73 11.24 11.24 0 006.79-2.39 54.32 54.32 0 008.13-8.18 3.9 3.9 0 013-1.56 2.57 2.57 0 012.28 1.34 6.85 6.85 0 01.84 3.67 10.52 10.52 0 01-2.12 6.9 50.5 50.5 0 01-10.68 10 22.76 22.76 0 01-12.8 3.45q-7.8 0-12.58-4.51t-6-12.75q-8.24 17.26-24.26 17.26a26 26 0 01-13.95-3.68z" />
            <path filter="url(#neon_glow)" class="text-glow" d="M1457 190.52a7 7 0 01.83 3.67 10.51 10.51 0 01-2.11 6.9q-11 13.47-23.49 13.47a20.72 20.72 0 01-17.25-8.35q-6.45-8.36-6.45-23.93c0-2.52.11-5.05.33-7.57a156.12 156.12 0 01-16 2q-5.79.45-7.9.56-2.22 11.35-6.23 27.83-2.34 9.68-8.91 9.68-7.12 0-7.12-6.46a20.23 20.23 0 01.56-4q3.78-15.25 6-25.83l-5.35.23q-3.66 0-5.34-1.28a5 5 0 01-1.67-4.18q0-3.66 2.12-5.39c1.41-1.15 3.74-1.8 7-2l5.9-.22q2.9-15.7 2.89-23.93c0-3.49-.52-5.86-1.56-7.13a5.07 5.07 0 00-4.11-1.89q-7.8 0-17.59 13a4.05 4.05 0 01-3.23 1.89 3.29 3.29 0 01-2.67-1.44 5.87 5.87 0 01-1.11-3.67 12.88 12.88 0 012.78-7.35 40.26 40.26 0 0112.39-11.13 29.48 29.48 0 0115.13-4.39c4.83 0 8.55 1.65 11.19 4.95s4 8.44 4 15.42q0 9.24-2.67 25l10.91-.56a114.69 114.69 0 0012-1.11 114.73 114.73 0 016.12-22.93 54.21 54.21 0 0110.24-17.36q6.12-6.67 13.69-6.68a10.33 10.33 0 018.79 4.4q3.23 4.39 3.23 11.52 0 27.6-28.16 38.28c-.22 3-.34 6-.34 9.24q0 11.68 2.9 16.58t8.12 4.9a15.33 15.33 0 008.35-2.39 39.47 39.47 0 008.57-8.18 3.9 3.9 0 013-1.56 2.58 2.58 0 012.22 1.39zm-22.49-60a57.09 57.09 0 00-5.17 12.14 115.32 115.32 0 00-3.9 16.8q8.91-3.68 13.14-10.46t4.23-17.47a7.66 7.66 0 00-.89-4 2.62 2.62 0 00-2.23-1.45c-1.59-.01-3.32 1.48-5.14 4.44z" />
            <path filter="url(#neon_glow)" class="text-glow" d="M1463.05 210.77a26 26 0 01-9.74-11 37.71 37.71 0 01-3.56-17 68.93 68.93 0 017.25-31.27 56.84 56.84 0 0121.37-23.15q14.13-8.73 34-8.73a83.15 83.15 0 0111 .78 60.94 60.94 0 0110.63 2.33c2.07.6 3.11 2.08 3.11 4.46a8.28 8.28 0 01-2.17 5.45 6.45 6.45 0 01-5.06 2.56 6.3 6.3 0 01-1.34-.11c-3.85-.89-7.16-1.54-9.9-2a58.84 58.84 0 00-8.68-.61q-14.14 0-24 6.84a41.92 41.92 0 00-14.96 18.14 60.13 60.13 0 00-4.89 24.26q0 9.47 3.72 14.64a11.49 11.49 0 009.74 5.17 15.72 15.72 0 0011.91-5.56q5.13-5.57 9.35-18t8.35-33.84a6 6 0 012.67-4.23 11 11 0 015.34-1.11q7.9 0 7.91 5.12a9.68 9.68 0 01-.34 2.23q-2.9 10.78-5.29 23.87t-2.39 19.87c0 4 .59 6.92 1.78 8.73a6.07 6.07 0 005.46 2.73 11.29 11.29 0 006.79-2.39 54.35 54.35 0 008.12-8.18 3.9 3.9 0 013-1.56 2.58 2.58 0 012.28 1.34 7 7 0 01.83 3.67 10.51 10.51 0 01-2.11 6.9 50.53 50.53 0 01-10.69 10 22.74 22.74 0 01-12.8 3.45q-7.79 0-12.57-4.51t-6-12.75q-8.25 17.26-24.27 17.26a25.89 25.89 0 01-13.85-3.8z" />
            <path filter="url(#static_blur)" class="text" id="M" d="M76.27 212.17q-2.55-2.62-2.55-9.94a99.15 99.15 0 011-12.64q1-7.71 3.42-21.22 4.13-25 6.51-43.25A157.78 157.78 0 0086.13 106q0-7.16-5.25-7.16-4.14 0-9.94 4.22t-12.8 13.43c-1.48 2-3.13 3-4.93 3a4.84 4.84 0 01-3.89-2.14 7.66 7.66 0 01-1.67-4.85 14 14 0 011-5.17 28.64 28.64 0 013.42-6A60.18 60.18 0 0169.11 85q9.39-5.81 18.76-5.8 8.75 0 13.44 5.56T106 101a77.43 77.43 0 01-.79 10.1c-.54 3.87-1 7-1.44 9.46s-.74 4.13-1 5.09q9.06-25.92 20.35-36.18T148 79.17q10.34 0 16.29 7.31t6 20.67a74.83 74.83 0 01-1.43 13q7.94-21.94 18.6-31.48a35.62 35.62 0 0124.48-9.54q11.13 0 17.1 7.15t6 20a86.36 86.36 0 01-2.07 17l-9.7 45.47a71.39 71.39 0 00-1.59 13.68q0 6.67 3.1 10t8.67 3.34a17.74 17.74 0 0010.26-3.49q5-3.49 11.84-11.61a5.59 5.59 0 014.29-2.23 3.67 3.67 0 013.26 1.91 9.81 9.81 0 011.2 5.25q0 6.2-3 9.86-8.27 10-16.37 14.62a33.89 33.89 0 01-17 4.61q-13.51 0-21.14-8T199 185.22q0-9.37 3.81-27.19l6.36-29.1q.31-1.43 1.11-5.08t1.28-6.92a45.54 45.54 0 00.47-6.44q0-5.56-2.14-8.35a7.29 7.29 0 00-6.12-2.78q-7.48 0-15.67 9.62t-15.58 31.88q-7.39 22.26-12 57.88c-.75 6.36-2 10.62-3.9 12.8s-4.85 3.25-9 3.25c-3.61 0-6.23-.84-7.87-2.54s-2.47-4.87-2.47-9.54a109.3 109.3 0 011.75-17.09q1.76-10.58 4.45-24.89 7.32-38.47 7.32-49.6 0-6-2.31-8.91c-1.53-1.91-3.84-2.86-6.91-2.86q-7.8 0-16.06 8.83t-16.14 31.32Q101.55 162 96.3 200.33c-.74 5.4-1.83 9.17-3.26 11.28s-4.21 3.18-8.35 3.18q-5.88 0-8.42-2.62z" />
            <path filter="url(#static_blur)" class="text" d="M263.23 210.77a26 26 0 01-9.74-11 37.71 37.71 0 01-3.56-17 68.93 68.93 0 017.23-31.34 56.84 56.84 0 0121.37-23.15q14.13-8.73 34-8.73a83.15 83.15 0 0111 .78 60.74 60.74 0 0110.63 2.33c2.08.6 3.12 2.08 3.12 4.46a8.33 8.33 0 01-2.17 5.45 6.49 6.49 0 01-5.11 2.63 6.13 6.13 0 01-1.33-.11c-3.86-.89-7.17-1.54-9.91-2a58.84 58.84 0 00-8.68-.61q-14.14 0-24 6.84a41.83 41.83 0 00-14.8 18.09 60 60 0 00-4.9 24.26q0 9.47 3.73 14.64a11.46 11.46 0 009.73 5.17 15.72 15.72 0 0011.82-5.48q5.13-5.57 9.35-18t8.35-33.84a6 6 0 012.67-4.23 11 11 0 015.34-1.11q7.9 0 7.91 5.12a9.17 9.17 0 01-.34 2.23Q322 156.9 319.66 170t-2.4 19.87c0 4 .6 6.92 1.78 8.73a6.07 6.07 0 005.46 2.73 11.29 11.29 0 006.79-2.39 53.88 53.88 0 008.12-8.18 3.9 3.9 0 013-1.56 2.58 2.58 0 012.28 1.34 7 7 0 01.83 3.67 10.51 10.51 0 01-2.11 6.9 50.53 50.53 0 01-10.69 10 22.72 22.72 0 01-12.8 3.45q-7.79 0-12.57-4.51t-6-12.75q-8.24 17.26-24.27 17.26a25.92 25.92 0 01-13.85-3.79z" />
            <path filter="url(#static_blur)" class="text" d="M351.1 212.72q-1.78-1.83-1.78-7a63.85 63.85 0 01.66-8.34q.67-4.9 2.34-14.81.23-1.34 1.78-10.85t2.79-20a118.18 118.18 0 001.11-13.29c0-3.34-1.23-5-3.67-5q-2.79 0-7 3a42.36 42.36 0 00-9 9.4 4.36 4.36 0 01-3.45 2.12 3.39 3.39 0 01-2.73-1.51 5.37 5.37 0 01-1.17-3.39 10.06 10.06 0 01.67-3.62 19.53 19.53 0 012.45-4.17 42.67 42.67 0 0112.13-11.52 26.57 26.57 0 0114-4.06q6.12 0 9.18 3.78t3.06 11a141.94 141.94 0 01-1.78 18.7q5.56-16.47 14.13-25a27.7 27.7 0 0120.15-8.51q9.12 0 13.74 5.17t4.62 13.86a60.81 60.81 0 01-1.33 11.88l-6.79 31.83a49.33 49.33 0 00-1.12 9.57c0 3.12.73 5.46 2.17 7a7.87 7.87 0 006.07 2.34 12.36 12.36 0 007.18-2.45 47 47 0 008.29-8.12 3.9 3.9 0 013-1.56 2.58 2.58 0 012.28 1.34 7 7 0 01.83 3.67 10.51 10.51 0 01-2.11 6.9 43 43 0 01-11.47 10.24 23.75 23.75 0 01-11.91 3.23q-9.45 0-14.8-5.62t-5.34-15.09a57.37 57.37 0 01.61-8q.62-4.34 2.06-11l4.45-20.37c.15-.66.41-1.85.78-3.56s.67-3.32.89-4.84a31.44 31.44 0 00.34-4.51 7.89 7.89 0 00-2-5.67 7.44 7.44 0 00-5.67-2.12q-6.69 0-13.36 7.13t-12.35 23q-5.68 15.85-8.91 40.57c-.52 3.78-1.28 6.42-2.28 7.9s-2.95 2.23-5.84 2.23-4.72-.66-5.9-1.88z" />
            <path filter="url(#static_blur)" class="text" d="M489.44 121.68a4.06 4.06 0 012 3.39 7.64 7.64 0 01-2.23 5.73 8.69 8.69 0 01-6.34 2.17c-4.31 0-7.57 0-9.8.11q-.22 1.33-2 12c-1.34 7.94-2.16 12.79-2.45 14.58l-2.34 14.58q-2.44 16.35-3.89 27.38c1.55-.08 3.67-.12 6.34-.12q5.89 0 8 1.56a5.44 5.44 0 012.12 4.68 6.25 6.25 0 01-2.28 4.89 9.37 9.37 0 01-6.4 2c-1.86 0-4.79-.08-8.79-.22-3.72-.15-6.16-.23-7.35-.23a105.85 105.85 0 00-15.36 1.23 40.09 40.09 0 01-5.23.55 6.39 6.39 0 01-4.12-1.33 4.71 4.71 0 01-1.67-3.9 7 7 0 013.56-6.23c2.38-1.48 5.71-2.26 10-2.34l5.23-.11.34-2.45q2.65-17.8 3.89-25.15l2.45-14.58q2.22-12.91 4-26.6l-9.35.11q-4 0-5.51-1.28a4.5 4.5 0 01-1.51-3.62q0-7.56 10.91-8.12 5.12-.23 12.47-.23l20.37.11a8.34 8.34 0 014.94 1.44zm7.9 87.59q-8.89-5.62-8.9-17.2c0-4.08.7-7.19 2.11-9.35a7 7 0 016.24-3.22 7.53 7.53 0 014.9 1.55 5 5 0 011.89 4 19.52 19.52 0 01-.34 3.9 12.47 12.47 0 01-.16 1.56 14.6 14.6 0 00-.17 2.33q0 5 5.06 7.46t14.19 2.45q9.47 0 14.81-3.4a10.67 10.67 0 005.34-9.51 9.43 9.43 0 00-2.45-6.51 20.35 20.35 0 00-6.12-4.57q-3.68-1.83-10.35-4.5a115 115 0 01-14-6.35 28.93 28.93 0 01-9.24-8.18 21 21 0 01-3.84-12.85 24.53 24.53 0 014.29-14.25A27.66 27.66 0 01513 123a48 48 0 0119-3.45 44.45 44.45 0 0114.91 2.39 24.17 24.17 0 0110.85 7.29 18.2 18.2 0 014.07 12q0 7-2.12 10.57a6.81 6.81 0 01-6.23 3.56 6.89 6.89 0 01-4.84-1.78 5.52 5.52 0 01-2-4.23 21.46 21.46 0 01.33-3.89c.23-2.23.34-3.64.34-4.23q0-4.68-4.57-7.12a23.8 23.8 0 00-11.35-2.45q-9.57 0-14.63 3.5a11.3 11.3 0 00-5.06 9.84 10.64 10.64 0 002.62 7.24 21.66 21.66 0 006.51 5q3.88 2 10.91 4.78a139.29 139.29 0 0113.57 6.24 26.9 26.9 0 018.74 7.56 19 19 0 013.62 11.8q0 13.14-10 20.2t-26.66 7.07q-14.76 0-23.67-5.62z" />
            <path filter="url(#static_blur)" class="text" id="K" d="M672.47 190.52a6.85 6.85 0 01.84 3.67 10.52 10.52 0 01-2.12 6.9q-11 13.47-23.48 13.47a20.71 20.71 0 01-17.25-8.35q-6.46-8.36-6.46-23.93c0-2.52.11-5.05.34-7.57a156.12 156.12 0 01-16 2q-5.79.45-7.9.56-2.24 11.35-6.24 27.83-2.32 9.68-8.9 9.68-7.12 0-7.12-6.46a20.07 20.07 0 01.55-4q3.79-15.25 6-25.83l-5.34.23q-3.68 0-5.34-1.28a5 5 0 01-1.67-4.18q0-3.66 2.11-5.39t7-2l5.89-.22q2.89-15.7 2.9-23.93c0-3.49-.52-5.86-1.56-7.13a5.07 5.07 0 00-4.12-1.89q-7.79 0-17.58 13a4.07 4.07 0 01-3.23 1.89 3.29 3.29 0 01-2.67-1.44 5.87 5.87 0 01-1.12-3.67 12.83 12.83 0 012.79-7.35A40.23 40.23 0 01575.14 124a29.51 29.51 0 0115.14-4.39q7.23 0 11.18 4.95t4 15.42q0 9.24-2.68 25l10.91-.56a114.43 114.43 0 0012-1.11 116.09 116.09 0 016.12-22.93A54.39 54.39 0 01642 123.07q6.12-6.67 13.69-6.68a10.36 10.36 0 018.8 4.4q3.22 4.39 3.22 11.52 0 27.6-28.16 38.28-.33 4.46-.33 9.24 0 11.68 2.89 16.58t8.13 4.9a15.38 15.38 0 008.35-2.39 39.47 39.47 0 008.57-8.18 3.9 3.9 0 013-1.56 2.56 2.56 0 012.31 1.34zm-22.48-60a56.58 56.58 0 00-5.17 12.14 112.77 112.77 0 00-3.9 16.8q8.91-3.68 13.13-10.46t4.23-17.47a7.57 7.57 0 00-.89-4 2.59 2.59 0 00-2.22-1.45c-1.64-.01-3.36 1.48-5.17 4.44zm219.4 49.93a9.91 9.91 0 011.19 5.25q0 6.2-3 9.86a69 69 0 01-15.43 14.23 33.33 33.33 0 01-18.44 5q-11.78 0-19.24-6.91t-14-21.55a167.19 167.19 0 00-7.87-15.66 24.21 24.21 0 00-6.12-7.31 15.81 15.81 0 00-7.64-2.63l-1.74 11.77q-3.35 22.74-13 32.75t-26.48 10a35.91 35.91 0 01-19.44-5.25 28.59 28.59 0 01-11.85-13.6 17 17 0 01-1.11-6.2 15.1 15.1 0 012.22-8.27c1.49-2.33 3.39-3.5 5.73-3.5a5.85 5.85 0 013.5 1 9.76 9.76 0 012.7 3.57q4.92 9.22 8.66 12.88a12.77 12.77 0 009.31 3.66c4.23 0 7.87-1.93 10.89-5.8s5.16-9.83 6.44-17.89l2.22-15.11h-2.54a7.16 7.16 0 01-7.79-7.79 9.68 9.68 0 012.14-6.59 6.79 6.79 0 015.33-2.47h5.25q1.11-7.78 1.59-10.81l4.93-35.78a70.09 70.09 0 00-7.79-.47q-13.51 0-20.51 4.69a15.18 15.18 0 00-7 13.43 19.74 19.74 0 00.87 6.44 58.54 58.54 0 002.31 5.49 6.36 6.36 0 01.64 2.86 7.72 7.72 0 01-3.26 6.12 11.28 11.28 0 01-7.24 2.62 7.91 7.91 0 01-7.47-4.45 36.17 36.17 0 01-4.77-18.12 32.43 32.43 0 015.48-18.29q5.49-8.26 16.62-13.27t27.51-5a99.54 99.54 0 0113.11.79 80.61 80.61 0 0113.12 3q7.79 2.39 7.79 8.91 0 8.74-7.47 8.74l-6.2 42.77a43.68 43.68 0 0030.29-16q11.68-14.07 19.47-38.24a12.85 12.85 0 014.85-6.83 14.81 14.81 0 018.67-2.39 10.74 10.74 0 016.92 2 6.85 6.85 0 012.46 5.64 17.39 17.39 0 01-.63 3.66q-8 26.24-22.74 41.66t-32.28 20.51a27.14 27.14 0 019.94 4.29 26.59 26.59 0 016.6 7.08 104.62 104.62 0 016.2 11.68q4.92 10.5 9.22 14.87a13.59 13.59 0 0010 4.37 16 16 0 009.7-3.41q4.6-3.42 11.6-11.69a5.62 5.62 0 014.3-2.23 3.7 3.7 0 013.28 1.92z" />
            <path filter="url(#static_blur)" class="text" d="M872.88 209.38q-4.78-5.17-4.78-13.86a60.89 60.89 0 011.44-11.91l6.9-31.83c.15-.59.51-2.22 1.06-4.89a42.43 42.43 0 00.84-8.69 6.39 6.39 0 00-1.06-4 3.44 3.44 0 00-2.84-1.34c-2.23 0-4.82 1.06-7.79 3.17a45.08 45.08 0 00-9.35 9.74 4.36 4.36 0 01-3.45 2.12 3.39 3.39 0 01-2.73-1.51A5.36 5.36 0 01850 143c0-2.3 1-4.9 3.11-7.79q11.35-15.58 26.6-15.58 6.8 0 10.63 4.12t3.84 12.13a65.21 65.21 0 01-.78 10.46q-.78 4.78-2.67 13l-4.56 20.37c-.15.67-.41 1.85-.78 3.56s-.67 3.32-.89 4.84a31.55 31.55 0 00-.34 4.51 7.9 7.9 0 002 5.68 7.43 7.43 0 005.67 2.11q6.69 0 13.53-7.12t12.68-23q5.85-15.85 9.08-40.56c.51-3.79 1.28-6.42 2.28-7.91s3-2.22 5.84-2.22q3.9 0 5.79 2.33c1.26 1.56 1.89 4.09 1.89 7.57a57 57 0 01-.72 7.91q-.74 4.89-2.17 13.69-3 17-4.79 31.27a78.36 78.36 0 00-.89 9.57c0 3 .69 5.36 2.06 7a6.91 6.91 0 005.51 2.39 12.36 12.36 0 007.18-2.45 47 47 0 008.29-8.12 3.9 3.9 0 013-1.56 2.59 2.59 0 012.29 1.34 7 7 0 01.83 3.67 10.51 10.51 0 01-2.11 6.9 43 43 0 01-11.47 10.24 23.75 23.75 0 01-11.93 3.21q-9.24 0-14.13-4.73a16.34 16.34 0 01-4.9-12.3 141.47 141.47 0 011.78-16.48q-5.57 16.37-14.08 24.94T887 214.56q-9.32 0-14.12-5.18z" />
            <path filter="url(#static_blur)" class="text" d="M961.81 209.27q-8.89-5.62-8.9-17.2c0-4.08.7-7.19 2.11-9.35a7 7 0 016.24-3.22 7.48 7.48 0 014.89 1.55 5 5 0 011.89 4 20.35 20.35 0 01-.33 3.9 11.23 11.23 0 01-.17 1.56 15.89 15.89 0 00-.16 2.33q0 5 5.06 7.46t14.19 2.45q9.47 0 14.8-3.4a10.66 10.66 0 005.35-9.51 9.43 9.43 0 00-2.45-6.51 20.35 20.35 0 00-6.12-4.57q-3.68-1.83-10.35-4.5a115 115 0 01-14-6.35 28.93 28.93 0 01-9.24-8.18 21 21 0 01-3.84-12.85 24.53 24.53 0 014.29-14.25 27.66 27.66 0 0112.38-9.63 48 48 0 0119-3.45 44.49 44.49 0 0114.91 2.39 24.22 24.22 0 0110.85 7.29 18.2 18.2 0 014.06 12q0 7-2.11 10.57a7.33 7.33 0 01-11.07 1.78 5.52 5.52 0 01-2-4.23 21.46 21.46 0 01.33-3.89c.22-2.23.34-3.64.34-4.23 0-3.12-1.53-5.49-4.57-7.12a23.8 23.8 0 00-11.35-2.45q-9.57 0-14.64 3.5a11.31 11.31 0 00-5.06 9.85 10.64 10.64 0 002.62 7.24 21.66 21.66 0 006.51 5q3.88 2 10.9 4.78a138.51 138.51 0 0113.58 6.24 27 27 0 018.74 7.56 19 19 0 013.62 11.8q0 13.14-10 20.2t-26.66 7.07q-14.74-.01-23.64-5.63z" />
            <path filter="url(#static_blur)" class="text" d="M1136.94 190.52a6.85 6.85 0 01.84 3.67 10.52 10.52 0 01-2.12 6.9q-11 13.47-23.48 13.47a20.71 20.71 0 01-17.25-8.35q-6.47-8.36-6.46-23.93c0-2.52.11-5.05.33-7.57a155.91 155.91 0 01-16 2c-3.86.3-6.5.49-7.9.56q-2.24 11.35-6.24 27.83-2.34 9.68-8.9 9.68-7.12 0-7.12-6.46a20.07 20.07 0 01.55-4q3.78-15.25 6-25.83l-5.34.23q-3.67 0-5.34-1.28a4.92 4.92 0 01-1.67-4.18q0-3.66 2.11-5.39t7-2l5.9-.22q2.89-15.7 2.9-23.93c0-3.49-.52-5.86-1.56-7.13a5.07 5.07 0 00-4.12-1.89q-7.78 0-17.58 13a4.08 4.08 0 01-3.23 1.89 3.29 3.29 0 01-2.67-1.44 5.87 5.87 0 01-1.12-3.67 12.83 12.83 0 012.79-7.35 40.23 40.23 0 0112.35-11.13 29.51 29.51 0 0115.14-4.39q7.23 0 11.18 4.95t4 15.42q0 9.24-2.67 25l10.91-.56a114.69 114.69 0 0012-1.11 116.09 116.09 0 016.12-22.93 54.39 54.39 0 0110.24-17.36q6.12-6.67 13.69-6.68a10.33 10.33 0 018.79 4.4q3.23 4.39 3.23 11.52 0 27.6-28.16 38.28-.33 4.46-.33 9.24 0 11.68 2.89 16.58t8.13 4.9a15.32 15.32 0 008.34-2.39 39.48 39.48 0 008.58-8.18 3.88 3.88 0 013-1.56 2.58 2.58 0 012.25 1.39zm-22.48-60a57.05 57.05 0 00-5.18 12.14 114.06 114.06 0 00-3.89 16.8q8.89-3.68 13.13-10.46t4.23-17.47a7.66 7.66 0 00-.89-4 2.59 2.59 0 00-2.23-1.45c-1.63-.01-3.35 1.48-5.17 4.44z" />
            <path filter="url(#static_blur)" class="text" d="M1273.84 167a3.82 3.82 0 011.17 2.9 8.1 8.1 0 01-1.73 5.11 6.65 6.65 0 01-5.4 2.34 73.78 73.78 0 01-15.8-1.33q-7.8 16.57-18.75 27.54t-21.65 11q-9.79 0-14.69-10.41t-5.57-27.88q-6.68 19.36-15.08 28.83t-17.86 9.46q-10.7 0-16.14-13.3t-5.46-35.79a247.52 247.52 0 012.9-35.95c.52-3.71 1.46-6.29 2.84-7.73s3.54-2.17 6.51-2.17a8.2 8.2 0 015.17 1.44q1.85 1.45 1.84 5.35c0 .52-.08 1.52-.22 3a274.35 274.35 0 00-3.34 38.85q0 14.91 2.56 23t6.9 8.13q3.89 0 9.4-8.18t11-24.26a253.23 253.23 0 009.23-38.35c.6-3.41 1.69-5.77 3.29-7.06a10 10 0 016.51-1.95q3.45 0 5.06 1.5a5.85 5.85 0 011.62 4.51 13.27 13.27 0 01-.23 2.78 214.77 214.77 0 00-3.11 36.28 184.81 184.81 0 00.83 19.7q.84 7.35 3.23 11.19a7.7 7.7 0 007 3.84q5.34 0 11.91-8.07a92.46 92.46 0 0012-20.09 27.59 27.59 0 01-10.24-11 33.61 33.61 0 01-3.45-15.53 36.16 36.16 0 012.72-14.86 20.12 20.12 0 017.46-9.07 19.23 19.23 0 0110.52-3A13.77 13.77 0 011258 123q4.18 5.12 4.18 14 0 12.59-5.46 27.94a78.73 78.73 0 0013.36 1 5.28 5.28 0 013.76 1.06zm-29.55-6.9q4.34-12.47 4.34-20.59 0-4.68-1.22-6.84a3.74 3.74 0 00-3.34-2.18q-3 0-4.9 3.51t-1.89 10q0 10.89 7.01 16.13z" />
            <path filter="url(#static_blur)" class="text" d="M1278.4 210.77a26.08 26.08 0 01-9.74-11 37.84 37.84 0 01-3.56-17 68.8 68.8 0 017.24-31.34 56.77 56.77 0 0121.37-23.15q14.13-8.73 33.94-8.73a83 83 0 0111 .78 60.74 60.74 0 0110.63 2.33c2.08.6 3.12 2.08 3.12 4.46a8.28 8.28 0 01-2.17 5.45 6.48 6.48 0 01-5.06 2.56 6.24 6.24 0 01-1.34-.11q-5.79-1.34-9.91-2a58.74 58.74 0 00-8.68-.61q-14.13 0-24 6.84a41.9 41.9 0 00-14.8 18.09 60 60 0 00-4.9 24.26q0 9.47 3.73 14.64a11.48 11.48 0 009.74 5.17 15.75 15.75 0 0011.91-5.56q5.12-5.57 9.35-18t8.35-33.84a5.92 5.92 0 012.67-4.23 11 11 0 015.34-1.11q7.9 0 7.9 5.12a9.59 9.59 0 01-.33 2.23q-2.89 10.78-5.29 23.87t-2.39 19.87c0 4 .59 6.92 1.78 8.73a6 6 0 005.45 2.73 11.24 11.24 0 006.79-2.39 54.32 54.32 0 008.13-8.18 3.9 3.9 0 013-1.56 2.57 2.57 0 012.28 1.34 6.85 6.85 0 01.84 3.67 10.52 10.52 0 01-2.12 6.9 50.5 50.5 0 01-10.68 10 22.76 22.76 0 01-12.8 3.45q-7.8 0-12.58-4.51t-6-12.75q-8.24 17.26-24.26 17.26a26 26 0 01-13.95-3.68z" />
            <path filter="url(#static_blur)" class="text" d="M1457 190.52a7 7 0 01.83 3.67 10.51 10.51 0 01-2.11 6.9q-11 13.47-23.49 13.47a20.72 20.72 0 01-17.25-8.35q-6.45-8.36-6.45-23.93c0-2.52.11-5.05.33-7.57a156.12 156.12 0 01-16 2q-5.79.45-7.9.56-2.22 11.35-6.23 27.83-2.34 9.68-8.91 9.68-7.12 0-7.12-6.46a20.23 20.23 0 01.56-4q3.78-15.25 6-25.83l-5.35.23q-3.66 0-5.34-1.28a5 5 0 01-1.67-4.18q0-3.66 2.12-5.39c1.41-1.15 3.74-1.8 7-2l5.9-.22q2.9-15.7 2.89-23.93c0-3.49-.52-5.86-1.56-7.13a5.07 5.07 0 00-4.11-1.89q-7.8 0-17.59 13a4.05 4.05 0 01-3.23 1.89 3.29 3.29 0 01-2.67-1.44 5.87 5.87 0 01-1.11-3.67 12.88 12.88 0 012.78-7.35 40.26 40.26 0 0112.39-11.13 29.48 29.48 0 0115.13-4.39c4.83 0 8.55 1.65 11.19 4.95s4 8.44 4 15.42q0 9.24-2.67 25l10.91-.56a114.69 114.69 0 0012-1.11 114.73 114.73 0 016.12-22.93 54.21 54.21 0 0110.24-17.36q6.12-6.67 13.69-6.68a10.33 10.33 0 018.79 4.4q3.23 4.39 3.23 11.52 0 27.6-28.16 38.28c-.22 3-.34 6-.34 9.24q0 11.68 2.9 16.58t8.12 4.9a15.33 15.33 0 008.35-2.39 39.47 39.47 0 008.57-8.18 3.9 3.9 0 013-1.56 2.58 2.58 0 012.22 1.39zm-22.49-60a57.09 57.09 0 00-5.17 12.14 115.32 115.32 0 00-3.9 16.8q8.91-3.68 13.14-10.46t4.23-17.47a7.66 7.66 0 00-.89-4 2.62 2.62 0 00-2.23-1.45c-1.59-.01-3.32 1.48-5.14 4.44z" />
            <path filter="url(#static_blur)" class="text" d="M1463.05 210.77a26 26 0 01-9.74-11 37.71 37.71 0 01-3.56-17 68.93 68.93 0 017.25-31.27 56.84 56.84 0 0121.37-23.15q14.13-8.73 34-8.73a83.15 83.15 0 0111 .78 60.94 60.94 0 0110.63 2.33c2.07.6 3.11 2.08 3.11 4.46a8.28 8.28 0 01-2.17 5.45 6.45 6.45 0 01-5.06 2.56 6.3 6.3 0 01-1.34-.11c-3.85-.89-7.16-1.54-9.9-2a58.84 58.84 0 00-8.68-.61q-14.14 0-24 6.84a41.92 41.92 0 00-14.96 18.14 60.13 60.13 0 00-4.89 24.26q0 9.47 3.72 14.64a11.49 11.49 0 009.74 5.17 15.72 15.72 0 0011.91-5.56q5.13-5.57 9.35-18t8.35-33.84a6 6 0 012.67-4.23 11 11 0 015.34-1.11q7.9 0 7.91 5.12a9.68 9.68 0 01-.34 2.23q-2.9 10.78-5.29 23.87t-2.39 19.87c0 4 .59 6.92 1.78 8.73a6.07 6.07 0 005.46 2.73 11.29 11.29 0 006.79-2.39 54.35 54.35 0 008.12-8.18 3.9 3.9 0 013-1.56 2.58 2.58 0 012.28 1.34 7 7 0 01.83 3.67 10.51 10.51 0 01-2.11 6.9 50.53 50.53 0 01-10.69 10 22.74 22.74 0 01-12.8 3.45q-7.79 0-12.57-4.51t-6-12.75q-8.25 17.26-24.27 17.26a25.89 25.89 0 01-13.85-3.8z" />

            <path filter="url(#neon_glow)" class="logo-primary" d="M1706 106h-81a9 9 0 01-9-9V16a90 90 0 0190 90z" />
            <rect filter="url(#neon_glow)" class="logo-primary" x="1616" y="115" width="90" height="90" rx="9" />
            <path filter="url(#neon_glow)" class="logo-primary" d="M1805 97a9 9 0 01-9 9h-81a90 90 0 0190-90z" />
            <rect filter="url(#neon_glow)" class="logo-primary" x="1715" y="115" width="90" height="90" rx="9" />
            <path filter="url(#neon_glow)" class="logo-primary" d="M1814 205v-81a9 9 0 019-9h81a90 90 0 01-90 90z" />
            <rect filter="url(#neon_glow)" class="logo-primary" x="1715" y="214" width="90" height="90" rx="9" />
            <path filter="url(#neon_glow)" class="logo-primary" d="M1904 304h-81a9 9 0 01-9-9v-81a90 90 0 0190 90z" />
            <path filter="url(#neon_glow)" class="crack" d="M1844.93 106l22.26-50.84L1814 66.81l53.02-11.85-1.21-22.2 3.71-16.76h2.91l-4.29 16.61.46 22.24-23.67 51.15z" />
            <g filter="url(#neon_glow)" class="flicker">
                <path class="logo-secondary" d="M1868.6 54.85l-.46-22.24 4.28-16.61H1895a9 9 0 019 9v72a9 9 0 01-9 9h-72a9 9 0 01-9-9V67z" />
                <path class="logo-secondary" d="M1820.13 17.68l49.39-1.68-3.71 16.76L1867 55l-54.21 12.29-1.35-40.29a9 9 0 018.69-9.3z" />
            </g>
            <path filter="url(#static_blur)" class="logo-primary" d="M1706 106h-81a9 9 0 01-9-9V16a90 90 0 0190 90z" />
            <rect filter="url(#static_blur)" class="logo-primary" x="1616" y="115" width="90" height="90" rx="9" />
            <path filter="url(#static_blur)" class="logo-primary" d="M1805 97a9 9 0 01-9 9h-81a90 90 0 0190-90z" />
            <rect filter="url(#static_blur)" class="logo-primary" x="1715" y="115" width="90" height="90" rx="9" />
            <path filter="url(#static_blur)" class="logo-primary" d="M1814 205v-81a9 9 0 019-9h81a90 90 0 01-90 90z" />
            <rect filter="url(#static_blur)" class="logo-primary" x="1715" y="214" width="90" height="90" rx="9" />
            <path filter="url(#static_blur)" class="logo-primary" d="M1904 304h-81a9 9 0 01-9-9v-81a90 90 0 0190 90z" />
            <g filter="url(#static_blur)" class="flicker">
                <path class="logo-secondary" d="M1868.6 54.85l-.46-22.24 4.28-16.61H1895a9 9 0 019 9v72a9 9 0 01-9 9h-72a9 9 0 01-9-9V67z" />
                <path class="logo-secondary" d="M1820.13 17.68l49.39-1.68-3.71 16.76L1867 55l-54.21 12.29-1.35-40.29a9 9 0 018.69-9.3z" />
                <path class="crack" d="M1844.93 106l22.26-50.84L1814 66.81l53.02-11.85-1.21-22.2 3.71-16.76h2.91l-4.29 16.61.46 22.24-23.67 51.15z" />
            </g>
            <rect filter="url(#static_blur)" class="logo-secondary" x="1616" y="214" width="90" height="90" rx="9" />
        </g>
    </g>
</svg>